#!OML:ASF Y:\EmotionMaleHayes\Project 1\Capture day 1\Session 1\Male1.ASF
:FULLY-SPECIFIED
:DEGREES
402
root -26.8602 16.721 -14.5374 180.617 68.9002 181.967
lowerback 7.50001 2.50856 2.61408
upperback 1.49181 3.59336 0.162564
thorax -2.50645 1.79142 -1.63552
lowerneck -15.9131 -8.78843 -6.84642
upperneck 23.1058 -12.0098 7.07136
head 10.9515 -5.12238 1.94103
rclavicle 5.55355e-015 -5.56597e-015
rhumerus -29.3223 12.563 -90.8192
rradius 38.6349
rwrist 0.666188
rhand -6.81524 -32.5961
rfingers 7.12502
rthumb 19.0485 -61.6834
lclavicle 5.55355e-015 -5.56597e-015
lhumerus -50.0884 3.15668 79.6394
lradius 23.2959
lwrist -18.5466
lhand -10.3493 -24.1205
lfingers 7.12502
lthumb 15.6473 5.26669
rfemur 10.7313 -2.11334 29.9516
rtibia 7.20209
rfoot -16.299 17.8228
rtoes 35.0014
lfemur -17.7672 4.38703 -9.14369
ltibia 50.4741
lfoot -10.9649 0.429987
ltoes -15.8474
403
root -26.8067 16.7227 -14.5922 181.511 70.0144 182.909
lowerback 7.52233 2.57838 2.84895
upperback 1.49911 3.7086 0.258112
thorax -2.49755 1.84781 -1.67918
lowerneck -16.7831 -8.77734 -6.47224
upperneck 23.8152 -11.9194 6.36851
head 11.3001 -5.0919 1.60913
rclavicle -4.48632e-014 1.63003e-014
rhumerus -28.9697 13.2001 -91.0429
rradius 38.6074
rwrist 0.754217
rhand -7.23566 -32.0973
rfingers 7.12502
rthumb 18.6442 -61.2238
lclavicle -4.48632e-014 1.63003e-014
lhumerus -50.4438 2.71733 80.0693
lradius 23.5533
lwrist -18.497
lhand -9.0601 -24.105
lfingers 7.12502
lthumb 16.8886 5.18066
rfemur 11.1447 -1.96431 30.0599
rtibia 7.06919
rfoot -16.0853 18.6614
rtoes 34.1303
lfemur -18.3672 4.24586 -8.96125
ltibia 49.3672
lfoot -11.2153 0.156747
ltoes -16.2668
404
root -26.746 16.7233 -14.6434 181.863 70.9836 183.334
lowerback 7.57227 2.63487 2.75898
upperback 1.53504 3.78238 0.376295
thorax -2.49859 1.88621 -1.51579
lowerneck -16.6947 -8.46078 -6.21321
upperneck 23.5835 -11.4825 6.16573
head 11.1313 -4.90951 1.57144
rclavicle 2.83392e-014 -3.57812e-015
rhumerus -28.6599 13.8593 -91.1522
rradius 38.7805
rwrist 0.734066
rhand -7.16994 -32.2138
rfingers 7.12502
rthumb 18.7074 -61.3342
lclavicle 2.83392e-014 -3.57812e-015
lhumerus -50.6853 2.30807 80.6176
lradius 23.7108
lwrist -18.3767
lhand -8.97866 -23.6191
lfingers 7.12502
lthumb 16.967 5.6598
rfemur 11.6708 -1.78902 29.9554
rtibia 6.8136
rfoot -14.3812 19.935
rtoes 38.5102
lfemur -18.867 4.10512 -9.01916
ltibia 48.1165
lfoot -11.5321 -0.096883
ltoes -15.1322
405
root -26.6878 16.7235 -14.6948 182.607 71.9469 184.136
lowerback 7.62384 2.68054 2.99347
upperback 1.58096 3.86404 0.380693
thorax -2.46094 1.92707 -1.65022
lowerneck -17.0681 -8.28877 -5.80385
upperneck 23.7195 -11.2425 5.75454
head 11.1817 -4.80572 1.38351
rclavicle -4.08627e-014 3.77691e-015
rhumerus -28.1774 14.2386 -91.2989
rradius 38.9236
rwrist 0.636361
rhand -7.0269 -31.4151
rfingers 7.12502
rthumb 18.8449 -60.5222
lclavicle -4.08627e-014 3.77691e-015
lhumerus -50.7346 2.62756 80.3174
lradius 23.665
lwrist -19.1392
lhand -8.98373 -23.4652
lfingers 7.12502
lthumb 16.9621 5.81419
rfemur 11.7865 -1.0524 30.2349
rtibia 7.20037
rfoot -14.385 20.2076
rtoes 39.2932
lfemur -19.4459 3.9844 -8.9386
ltibia 46.9976
lfoot -11.464 -0.451448
ltoes -14.1779
406
root -26.6355 16.7242 -14.7497 183.43 72.9312 184.926
lowerback 7.65604 2.73226 3.21399
upperback 1.61951 3.95281 0.412469
thorax -2.42199 1.97161 -1.74842
lowerneck -17.0255 -7.94828 -5.62519
upperneck 23.2126 -10.806 5.7884
head 10.9461 -4.61013 1.44071
rclavicle -7.64079e-015 -5.96354e-015
rhumerus -27.6311 14.6511 -91.3514
rradius 39.066
rwrist 0.715552
rhand -6.65711 -30.5703
rfingers 7.12502
rthumb 19.2006 -59.6425
lclavicle -7.64079e-015 -5.96354e-015
lhumerus -50.6441 2.81063 80.2834
lradius 23.5589
lwrist -19.2217
lhand -7.70786 -23.3323
lfingers 7.12502
lthumb 18.1899 5.83716
rfemur 11.8684 -0.567984 30.3612
rtibia 7.44169
rfoot -14.3823 20.5327
rtoes 39.6466
lfemur -20.2001 3.862 -8.91064
ltibia 46.0014
lfoot -11.2983 -0.813148
ltoes -11.161
407
root -26.5785 16.725 -14.8049 184.117 73.7936 185.655
lowerback 7.74465 2.71 3.34675
upperback 1.68694 3.94057 0.488447
thorax -2.39858 1.96716 -1.74577
lowerneck -17.5965 -7.72573 -5.35676
upperneck 23.4364 -10.4547 5.36649
head 11.0727 -4.46459 1.28188
rclavicle 1.55673e-014 -1.61016e-014
rhumerus -27.2892 15.2071 -91.3996
rradius 39.4822
rwrist 0.846582
rhand -6.10031 -30.1586
rfingers 7.12502
rthumb 19.7359 -59.1767
lclavicle 1.55673e-014 -1.61016e-014
lhumerus -50.7387 2.73773 80.6172
lradius 23.7688
lwrist -18.6717
lhand -7.62825 -22.895
lfingers 7.12502
lthumb 18.2665 6.26729
rfemur 12.1116 0.108506 30.5825
rtibia 7.59107
rfoot -14.7935 20.5087
rtoes 39.058
lfemur -20.9723 3.99463 -8.97266
ltibia 44.7591
lfoot -10.6503 -0.743253
ltoes -10.596
408
root -26.5157 16.7223 -14.8568 185.059 74.6175 186.746
lowerback 7.88591 2.68758 3.57078
upperback 1.77506 3.93764 0.538453
thorax -2.37444 1.9676 -1.82362
lowerneck -17.6112 -7.39461 -5.31187
upperneck 23.1186 -10.0316 5.51989
head 10.9381 -4.26224 1.39759
rclavicle -3.20043e-014 2.08724e-014
rhumerus -27.0138 15.7925 -91.5302
rradius 40.051
rwrist 0.662581
rhand -5.82032 -30.3683
rfingers 7.12502
rthumb 20.0051 -59.3585
lclavicle -3.20043e-014 2.08724e-014
lhumerus -50.9286 2.2673 81.1108
lradius 24.1374
lwrist -18.0724
lhand -7.79737 -23.1664
lfingers 7.12502
lthumb 18.1038 6.01108
rfemur 12.4544 0.584529 30.8151
rtibia 7.76876
rfoot -15.099 20.5914
rtoes 38.2801
lfemur -21.3736 3.3345 -8.97981
ltibia 43.3743
lfoot -10.5773 -0.261878
ltoes -11.2186
409
root -26.4535 16.7162 -14.9102 185.717 75.4345 187.499
lowerback 8.02442 2.7292 3.69778
upperback 1.7778 4.01033 0.548992
thorax -2.43644 2.00206 -1.89785
lowerneck -18.0903 -7.39862 -5.27649
upperneck 23.4869 -10.0063 5.34647
head 11.1532 -4.25005 1.31666
rclavicle 8.64216e-014 -1.78906e-015
rhumerus -26.8202 16.3665 -91.6449
rradius 40.5576
rwrist 0.251989
rhand -6.05388 -30.6544
rfingers 7.12502
rthumb 19.7806 -59.6679
lclavicle 8.64216e-014 -1.78906e-015
lhumerus -51.1835 1.75475 81.5305
lradius 24.5034
lwrist -17.6286
lhand -8.02871 -23.0103
lfingers 7.12502
lthumb 17.8812 6.18764
rfemur 12.7713 1.00465 30.8726
rtibia 7.95117
rfoot -15.2322 20.7428
rtoes 38.1214
lfemur -21.6604 3.51431 -9.17205
ltibia 41.8395
lfoot -10.5401 0.00476174
ltoes -14.8119
410
root -26.3939 16.7097 -14.9659 186.37 76.2818 188.121
lowerback 8.05761 2.80272 3.84359
upperback 1.71002 4.11989 0.509298
thorax -2.50535 2.05223 -2.03398
lowerneck -17.751 -7.15259 -5.0538
upperneck 23.2044 -9.69354 5.23898
head 10.9444 -4.11807 1.3045
rclavicle -1.05679e-013 4.37326e-015
rhumerus -26.7294 16.84 -91.7868
rradius 41.0175
rwrist -0.105564
rhand -6.02174 -30.6174
rfingers 7.12502
rthumb 19.8115 -59.6277
lclavicle -1.05679e-013 4.37326e-015
lhumerus -51.4263 1.28466 81.8449
lradius 24.8494
lwrist -16.8363
lhand -8.44031 -22.6167
lfingers 7.12502
lthumb 17.4851 6.61694
rfemur 12.839 0.969788 30.6118
rtibia 8.36535
rfoot -15.6538 21.4903
rtoes 37.4685
lfemur -22.1697 3.87772 -9.37438
ltibia 40.2515
lfoot -9.7967 0.123223
ltoes -15.4603
411
root -26.3353 16.7042 -15.0207 187.129 77.1874 188.803
lowerback 8.06138 2.86529 3.936
upperback 1.67779 4.2093 0.479473
thorax -2.52635 2.0945 -2.12545
lowerneck -17.9195 -6.99303 -4.86943
upperneck 23.1963 -9.48265 5.09426
head 10.9427 -4.0232 1.25096
rclavicle -2.51835e-014 4.37326e-015
rhumerus -26.5474 17.2886 -91.8913
rradius 41.49
rwrist -0.395835
rhand -5.61407 -30.6283
rfingers 7.12502
rthumb 20.2033 -59.5977
lclavicle -2.51835e-014 4.37326e-015
lhumerus -51.4749 1.07454 81.9953
lradius 25.116
lwrist -15.8551
lhand -7.36815 -22.4537
lfingers 7.12502
lthumb 18.5167 6.68499
rfemur 12.8078 1.32901 30.4994
rtibia 8.90494
rfoot -16.1298 21.8559
rtoes 36.5551
lfemur -22.6753 4.22266 -9.56158
ltibia 38.5696
lfoot -7.6847 0.369226
ltoes 10.607
412
root -26.2724 16.6998 -15.0762 187.857 77.8826 189.585
lowerback 8.19734 2.85878 4.06447
upperback 1.7058 4.21804 0.468971
thorax -2.56213 2.09802 -2.21575
lowerneck -17.7707 -6.65808 -4.82027
upperneck 22.7799 -9.06726 5.29051
head 10.7449 -3.82273 1.38355
rclavicle -6.85559e-014 6.55989e-015
rhumerus -26.3635 17.819 -92.0082
rradius 41.9938
rwrist -0.838342
rhand -5.45348 -30.8222
rfingers 7.12502
rthumb 20.3577 -59.7751
lclavicle -6.85559e-014 6.55989e-015
lhumerus -51.5542 0.719498 82.2687
lradius 25.4694
lwrist -15.1649
lhand -8.19658 -22.5976
lfingers 7.12502
lthumb 17.7197 6.61497
rfemur 12.9955 1.91241 30.5758
rtibia 9.27934
rfoot -16.1307 21.998
rtoes 37.2696
lfemur -23.4315 3.94544 -9.84167
ltibia 37.7174
lfoot -6.93883 0.838919
ltoes 38.2924
413
root -26.2049 16.6936 -15.129 188.877 78.4916 190.711
lowerback 8.34278 2.85867 4.231
upperback 1.76044 4.24153 0.506433
thorax -2.57541 2.1102 -2.27876
lowerneck -18.7166 -6.71704 -4.62266
upperneck 23.4749 -9.08151 4.7811
head 11.1462 -3.8409 1.13684
rclavicle 2.48357e-014 2.38542e-015
rhumerus -26.1601 18.5658 -92.0585
rradius 42.4265
rwrist -1.39431
rhand -5.64749 -30.8634
rfingers 7.12502
rthumb 20.1712 -59.8362
lclavicle 2.48357e-014 2.38542e-015
lhumerus -51.4269 0.829543 82.1256
lradius 25.5755
lwrist -15.0979
lhand -8.02123 -23.3724
lfingers 7.12502
lthumb 17.8884 5.82494
rfemur 13.2694 2.53034 30.7852
rtibia 9.58515
rfoot -16.2135 22.0381
rtoes 38.0994
lfemur -23.294 3.90669 -9.94164
ltibia 35.0945
lfoot -6.13546 1.97375
ltoes 45.3634
414
root -26.1351 16.6832 -15.1806 190.079 79.2613 191.898
lowerback 8.361 2.9101 4.32969
upperback 1.79927 4.32007 0.534472
thorax -2.53477 2.15073 -2.31152
lowerneck -18.3979 -6.33402 -4.47381
upperneck 22.8754 -8.56863 4.75247
head 10.8255 -3.62428 1.19434
rclavicle -5.59827e-014 -6.16232e-015
rhumerus -25.8244 19.2754 -92.0143
rradius 42.7467
rwrist -1.68672
rhand -5.77036 -30.6672
rfingers 7.12502
rthumb 20.0531 -59.6524
lclavicle -5.59827e-014 -6.16232e-015
lhumerus -51.2967 0.964563 82.029
lradius 25.7491
lwrist -15.3954
lhand -8.6952 -23.6671
lfingers 7.12502
lthumb 17.2398 5.58815
rfemur 14.5189 3.04014 30.8502
rtibia 7.8599
rfoot -15.8596 21.9432
rtoes 37.1813
lfemur -23.4035 4.03273 -10.0722
ltibia 32.8199
lfoot -5.37321 2.74787
ltoes 40.035
415
root -26.0621 16.6668 -15.2324 191.815 79.955 193.546
lowerback 8.30285 2.94168 4.47102
upperback 1.78564 4.37247 0.58023
thorax -2.50599 2.17631 -2.3443
lowerneck -18.8249 -6.27792 -4.41994
upperneck 23.0035 -8.45206 4.55077
head 10.9351 -3.58422 1.11901
rclavicle 2.20278e-014 7.15625e-015
rhumerus -25.6318 19.7371 -92.029
rradius 43.206
rwrist -2.0503
rhand -5.53028 -30.893
rfingers 7.12502
rthumb 20.2838 -59.8539
lclavicle 2.20278e-014 7.15625e-015
lhumerus -51.306 0.664865 82.3472
lradius 26.2843
lwrist -14.5535
lhand -8.81772 -22.9293
lfingers 7.12502
lthumb 17.1219 6.33628
rfemur 14.5939 3.50862 31.0044
rtibia 8.24867
rfoot -16.5499 21.8221
rtoes 35.9198
lfemur -23.7353 4.19225 -10.1718
ltibia 30.9495
lfoot -5.09889 2.99924
ltoes 31.5495
